HIERARCHY
ROOT Hips
{
  OFFSET 54.8664 57.6768 13.2636
  CHANNELS 6 Xposition Yposition Zposition Zrotation Xrotation Yrotation
  JOINT spine
  {
    OFFSET 0 8.13249 0.467659
    CHANNELS 3 Zrotation Xrotation Yrotation
    JOINT spine1
    {
      OFFSET 0 10.3498 0
      CHANNELS 3 Zrotation Xrotation Yrotation
      JOINT spine2
      {
        OFFSET 0 9.91699 0
        CHANNELS 3 Zrotation Xrotation Yrotation
        JOINT Neck
        {
          OFFSET 0 25.461 1.2139
          CHANNELS 3 Zrotation Xrotation Yrotation
          JOINT Head
          {
            OFFSET 0 7.69245 0
            CHANNELS 3 Zrotation Xrotation Yrotation
            End Site
            {
              OFFSET 0 18.62 -6.14063
            }
          }
        }
        JOINT RightShoulder
        {
          OFFSET -4.17575 10.7096 -0.581445
          CHANNELS 3 Zrotation Xrotation Yrotation
          JOINT RightArm
          {
            OFFSET 0 14.0466 0
            CHANNELS 3 Zrotation Xrotation Yrotation
            JOINT RightArmRoll
            {
              OFFSET 0 7.09099 0
              CHANNELS 3 Zrotation Xrotation Yrotation
              JOINT RightForeArm
              {
                OFFSET 0 20.6535 0
                CHANNELS 3 Zrotation Xrotation Yrotation
                JOINT RightForeArmRoll
                {
                  OFFSET 0 7.95718 0
                  CHANNELS 3 Zrotation Xrotation Yrotation
                  JOINT RightHand
                  {
                    OFFSET 0 15.9683 0
                    CHANNELS 3 Zrotation Xrotation Yrotation
                    End Site
                    {
                      OFFSET 0 0 0
                    }
                  }
                }
              }
            }
          }
        }
        JOINT LeftShoulder
        {
          OFFSET 4.17575 10.7096 -0.581445
          CHANNELS 3 Zrotation Xrotation Yrotation
          JOINT LeftArm
          {
            OFFSET 0 14.0466 0
            CHANNELS 3 Zrotation Xrotation Yrotation
            JOINT LeftArmRoll
            {
              OFFSET 0 7.09099 0
              CHANNELS 3 Zrotation Xrotation Yrotation
              JOINT LeftForeArm
              {
                OFFSET 0 20.6535 0
                CHANNELS 3 Zrotation Xrotation Yrotation
                JOINT LeftForeArmRoll
                {
                  OFFSET 0 7.95718 0
                  CHANNELS 3 Zrotation Xrotation Yrotation
                  JOINT LeftHand
                  {
                    OFFSET 0 15.9683 0
                    CHANNELS 3 Zrotation Xrotation Yrotation
                    End Site
                    {
                      OFFSET 0 0 0
                    }
                  }
                }
              }
            }
          }
        }
      }
    }
  }
  JOINT RightUpLeg
  {
    OFFSET -7.20834 -1.32182 -1.10884
    CHANNELS 3 Zrotation Xrotation Yrotation
    JOINT RightUpLegRoll
    {
      OFFSET 0 18.7238 0
      CHANNELS 3 Zrotation Xrotation Yrotation
      JOINT RightLeg
      {
        OFFSET 0 -23.1866 0
        CHANNELS 3 Zrotation Xrotation Yrotation
        JOINT RightLegRoll
        {
          OFFSET 0 23.2624 0
          CHANNELS 3 Zrotation Xrotation Yrotation
          JOINT RightFoot
          {
            OFFSET 0 19.3621 0
            CHANNELS 3 Zrotation Xrotation Yrotation
            JOINT RightToeBase
            {
              OFFSET 0 16.1857 0
              CHANNELS 3 Zrotation Xrotation Yrotation
              End Site
              {
                OFFSET 0.00686052 7.83863 -0.903521
              }
            }
          }
        }
      }
    }
  }
  JOINT LeftUpLeg
  {
    OFFSET 7.20834 -1.32182 -1.10884
    CHANNELS 3 Zrotation Xrotation Yrotation
    JOINT LeftUpLegRoll
    {
      OFFSET 0 18.7239 0
      CHANNELS 3 Zrotation Xrotation Yrotation
      JOINT LeftLeg
      {
        OFFSET 0 23.1865 0
        CHANNELS 3 Zrotation Xrotation Yrotation
        JOINT LeftLegRoll
        {
          OFFSET 0 23.4775 0
          CHANNELS 3 Zrotation Xrotation Yrotation
          JOINT LeftFoot
          {
            OFFSET 0 19.147 0
            CHANNELS 3 Zrotation Xrotation Yrotation
            JOINT LeftToeBase
            {
              OFFSET 0 16.1857 0
              CHANNELS 3 Zrotation Xrotation Yrotation
              End Site
              {
                OFFSET -0.0307459 7.83863 -0.903521
              }
            }
          }
        }
      }
    }
  }
}
MOTION
Frames: 12
Frame Time: 0.00208333
55.1911 96.57 51.0955 0.0487944 -2.70013 0.2841 0.31034 -1.33299 0.153323 0.61398 1.33751 0.273754 0.611143 2.98251 0.263617 -1.32915 9.96538 -5.55159 0.861679 6.29898 -5.9242 59.8795 -10.2791 -6.39619 113.669 21.8389 11.0307 -1.67054e-006 2.70513e-007 7.76101e-006 11.1572 0.0836196 -0.658954 1.9215e-006 3.63882e-006 -3.02098 8.02892 -4.95148 0.697704 -62.6868 -7.82755 4.97291 -110.352 19.9326 -4.03267 6.21236e-006 3.09363e-007 4.92681e-006 -10.4302 0.0807983 0.943269 1.11124e-005 4.87707e-006 3.03488 -8.02895 -4.95148 -0.69769 173.866 3.52413 3.5937 -180 7.01543e-015 178.905 177.822 10.4179 179.836 -2.43837e-006 -5.43981e-006 0.161285 -19.1056 68.4222 19.904 8.13649 25.2327 -3.48774 -175.367 1.23657 -0.228012 4.5067e-006 -1.99009e-005 -1.12277 -1.12354 -8.54888 0.261909 1.5033e-006 1.23405e-006 -0.0984444 18.5193 67.9581 -19.4985 -8.13651 25.2329 3.48747 
55.1883 96.5974 51.0924 0.0448328 -2.67767 0.288434 0.311953 -1.33882 0.150661 0.617881 1.32584 0.268273 0.615111 2.97084 0.258067 -1.36438 10.0334 -5.53919 0.893357 6.268 -5.91915 59.8528 -10.2509 -6.37866 113.689 21.8274 11.0564 -1.67054e-006 2.70513e-007 7.76101e-006 11.1386 0.0836249 -0.660533 1.9215e-006 3.63882e-006 -3.02098 8.02892 -4.95148 0.697704 -62.7168 -7.81788 4.96826 -110.316 19.9193 -4.03388 6.21236e-006 3.09363e-007 4.92681e-006 -10.4394 0.0807958 0.938977 1.11124e-005 4.87707e-006 3.03485 -8.02895 -4.95148 -0.69769 173.872 3.54843 3.58907 -180 7.01543e-015 178.905 177.822 10.4112 179.836 -2.43837e-006 -5.43981e-006 0.161164 -19.1021 68.4181 19.9001 8.13649 25.2327 -3.48774 -175.367 1.29662 -0.21289 4.5067e-006 -1.99009e-005 -1.12222 -1.10699 -8.59517 0.26541 1.5033e-006 1.23405e-006 -0.100561 18.5383 67.9739 -19.5115 -8.13651 25.2329 3.48747 
55.1583 96.5817 51.0649 0.0407245 -2.65409 0.293248 0.31365 -1.34509 0.147805 0.622005 1.31329 0.262393 0.619306 2.95829 0.252115 -1.40214 10.1053 -5.52599 0.927173 6.234 -5.91382 59.8244 -10.2206 -6.35988 113.711 21.8147 11.0834 -1.67054e-006 2.70513e-007 7.76101e-006 11.1192 0.0836305 -0.662137 1.9215e-006 3.63882e-006 -3.02098 8.02892 -4.95148 0.697704 -62.7491 -7.80727 4.96315 -110.277 19.9043 -4.03525 6.21236e-006 3.09363e-007 4.92681e-006 -10.4495 0.0807932 0.934343 1.11124e-005 4.87707e-006 3.03481 -8.02895 -4.95148 -0.69769 173.877 3.57441 3.58439 -180 7.01543e-015 178.905 177.821 10.4052 179.836 -2.43837e-006 -5.43981e-006 0.161067 -19.0987 68.4143 19.8966 8.13649 25.2327 -3.48774 -175.367 1.35977 -0.196934 4.5067e-006 -1.99009e-005 -1.12163 -1.08959 -8.64418 0.269109 1.5033e-006 1.23405e-006 -0.102774 18.558 67.9905 -19.5253 -8.13651 25.2329 3.48747 
55.1634 96.5957 51.0679 0.0365117 -2.62972 0.298397 0.315405 -1.35167 0.144812 0.626284 1.30011 0.256235 0.623659 2.94511 0.245881 -1.44169 10.1799 -5.51223 0.962488 6.19788 -5.90828 59.7949 -10.1889 -6.34021 113.734 21.8012 11.1112 -1.67054e-006 2.70513e-007 7.76101e-006 11.0994 0.0836361 -0.663759 1.9215e-006 3.63882e-006 -3.02098 8.02892 -4.95148 0.697704 -62.783 -7.79602 4.95772 -110.236 19.8883 -4.03674 6.21236e-006 3.09363e-007 4.92681e-006 -10.4602 0.0807905 0.929468 1.11124e-005 4.87707e-006 3.03476 -8.02895 -4.95148 -0.69769 173.883 3.60156 3.57967 -180 7.01543e-015 178.905 177.821 10.3998 179.836 -2.43837e-006 -5.43981e-006 0.160985 -19.0956 68.4107 19.8932 8.13649 25.2327 -3.48774 -175.368 1.42508 -0.180394 4.5067e-006 -1.99009e-005 -1.12101 -1.07159 -8.69509 0.272945 1.5033e-006 1.23405e-006 -0.105056 18.5781 68.0078 -19.5396 -8.13651 25.2329 3.48747 
55.1801 96.5975 51.0712 0.0322371 -2.60491 0.303739 0.317192 -1.35843 0.14174 0.630649 1.28658 0.249917 0.628101 2.93158 0.239486 -1.48228 10.2561 -5.49815 0.998664 6.16056 -5.90262 59.7647 -10.1563 -6.32005 113.757 21.7873 11.1396 -1.67054e-006 2.70513e-007 7.76101e-006 11.0792 0.0836419 -0.66539 1.9215e-006 3.63882e-006 -3.02098 8.02892 -4.95148 0.697704 -62.8179 -7.78439 4.95209 -110.193 19.8716 -4.03829 6.21236e-006 3.09363e-007 4.92681e-006 -10.4712 0.0807876 0.924455 1.11124e-005 4.87707e-006 3.0347 -8.02895 -4.95148 -0.69769 173.889 3.62937 3.57493 -180 7.01543e-015 178.905 177.82 10.3947 179.836 -2.43837e-006 -5.43981e-006 0.160912 -19.0926 68.4072 19.8899 8.13649 25.2327 -3.48774 -175.368 1.49164 -0.163519 4.5067e-006 -1.99009e-005 -1.12038 -1.05324 -8.74708 0.276862 1.5033e-006 1.23405e-006 -0.107378 18.5986 68.0254 -19.5543 -8.13651 25.2329 3.48747 
55.1654 96.5985 51.0638 0.0279434 -2.57997 0.309128 0.318988 -1.36523 0.138649 0.635034 1.27296 0.24356 0.632563 2.91796 0.233051 -1.52316 10.3327 -5.48399 1.03506 6.12292 -5.89694 59.7343 -10.1236 -6.29977 113.781 21.7732 11.1681 -1.67054e-006 2.70513e-007 7.76101e-006 11.059 0.0836476 -0.667024 1.9215e-006 3.63882e-006 -3.02098 8.02892 -4.95148 0.697704 -62.853 -7.77267 4.94643 -110.151 19.8547 -4.03987 6.21236e-006 3.09363e-007 4.92681e-006 -10.4823 0.0807847 0.919408 1.11124e-005 4.87707e-006 3.03464 -8.02895 -4.95148 -0.69769 173.894 3.65736 3.57018 -180 7.01543e-015 178.905 177.82 10.3897 179.835 -2.43837e-006 -5.43981e-006 0.160842 -19.0896 68.4038 19.8867 8.13649 25.2327 -3.48774 -175.369 1.55851 -0.14656 4.5067e-006 -1.99009e-005 -1.11975 -1.0348 -8.79934 0.2808 1.5033e-006 1.23405e-006 -0.109708 18.6192 68.0431 -19.569 -8.13651 25.2329 3.48747 
55.1601 96.5978 51.0545 0.0236738 -2.55527 0.314421 0.320765 -1.37194 0.135597 0.639371 1.25952 0.237282 0.636976 2.90452 0.226697 -1.56358 10.4085 -5.47 1.07104 6.0859 -5.89132 59.7042 -10.0912 -6.27974 113.804 21.7594 11.1963 -1.67054e-006 2.70513e-007 7.76101e-006 11.0389 0.0836534 -0.668653 1.9215e-006 3.63882e-006 -3.02098 8.02892 -4.95148 0.697704 -62.8876 -7.76113 4.94085 -110.108 19.8382 -4.04141 6.21236e-006 3.09363e-007 4.92681e-006 -10.4932 0.0807818 0.914429 1.11124e-005 4.87707e-006 3.03458 -8.02895 -4.95148 -0.69769 173.9 3.68501 3.56545 -180 7.01543e-015 178.905 177.819 10.3845 179.835 -2.43837e-006 -5.43981e-006 0.160767 -19.0865 68.4003 19.8834 8.13649 25.2327 -3.48774 -175.369 1.62475 -0.129767 4.5067e-006 -1.99009e-005 -1.11912 -1.01652 -8.85106 0.284699 1.5033e-006 1.23405e-006 -0.11202 18.6397 68.0606 -19.5837 -8.13651 25.2329 3.48747 
55.161 96.598 51.0513 0.0194722 -2.53112 0.319474 0.322501 -1.37843 0.132643 0.643594 1.24652 0.231204 0.641272 2.89152 0.220544 -1.60278 10.4824 -5.45641 1.10595 6.05038 -5.88585 59.6749 -10.0599 -6.26035 113.826 21.7461 11.2238 -1.67054e-006 2.70513e-007 7.76101e-006 11.0191 0.083659 -0.67027 1.9215e-006 3.63882e-006 -3.02098 8.02892 -4.95148 0.697704 -62.921 -7.75006 4.93551 -110.068 19.8225 -4.04286 6.21236e-006 3.09363e-007 4.92681e-006 -10.5037 0.0807791 0.909622 1.11124e-005 4.87707e-006 3.03453 -8.02895 -4.95148 -0.69769 173.906 3.71182 3.56074 -180 7.01543e-015 178.905 177.819 10.3789 179.835 -2.43837e-006 -5.43981e-006 0.160681 -19.0833 68.3967 19.88 8.13649 25.2327 -3.48774 -175.37 1.68945 -0.11339 4.5067e-006 -1.99009e-005 -1.11851 -0.998656 -8.90142 0.288502 1.5033e-006 1.23405e-006 -0.114282 18.6599 68.0777 -19.598 -8.13651 25.2329 3.48747 
55.1657 96.598 51.0488 0.0153823 -2.50788 0.324143 0.324168 -1.38457 0.129845 0.647634 1.23423 0.225444 0.645382 2.87923 0.214713 -1.63999 10.5531 -5.44347 1.13917 6.01728 -5.88062 59.6469 -10.0302 -6.24198 113.848 21.7338 11.2504 -1.67054e-006 2.70513e-007 7.76101e-006 11 0.0836644 -0.671866 1.9215e-006 3.63882e-006 -3.02098 8.02892 -4.95148 0.697704 -62.9526 -7.73973 4.93054 -110.03 19.808 -4.04418 6.21236e-006 3.09363e-007 4.92681e-006 -10.5135 0.0807766 0.905091 1.11124e-005 4.87707e-006 3.03449 -8.02895 -4.95148 -0.69769 173.911 3.7373 3.55608 -180 7.01543e-015 178.905 177.818 10.3727 179.835 -2.43837e-006 -5.43981e-006 0.160576 -19.08 68.3928 19.8763 8.13649 25.2327 -3.48774 -175.37 1.75167 -0.0976798 4.5067e-006 -1.99009e-005 -1.11793 -0.98147 -8.94962 0.292149 1.5033e-006 1.23405e-006 -0.116467 18.6794 68.0941 -19.6117 -8.13651 25.2329 3.48747 
55.162 96.5942 51.0434 0.0114485 -2.48588 0.328284 0.325744 -1.39022 0.127262 0.651427 1.22292 0.220123 0.649239 2.86791 0.209326 -1.67447 10.6196 -5.43141 1.17004 5.98751 -5.87571 59.6206 -10.0028 -6.225 113.869 21.7227 11.2755 -1.67054e-006 2.70513e-007 7.76101e-006 10.9817 0.0836696 -0.673435 1.9215e-006 3.63882e-006 -3.02098 8.02892 -4.95148 0.697704 -62.9816 -7.73043 4.92609 -109.994 19.7953 -4.04532 6.21236e-006 3.09363e-007 4.92681e-006 -10.5223 0.0807742 0.900937 1.11124e-005 4.87707e-006 3.03447 -8.02895 -4.95148 -0.69769 173.917 3.76093 3.55147 -180 7.01543e-015 178.905 177.818 10.3656 179.835 -2.43837e-006 -5.43981e-006 0.160447 -19.0763 68.3886 19.8724 8.13649 25.2327 -3.48774 -175.37 1.81048 -0.0828857 4.5067e-006 -1.99009e-005 -1.1174 -0.965215 -8.99483 0.295581 1.5033e-006 1.23405e-006 -0.118544 18.6983 68.1095 -19.6246 -8.13651 25.2329 3.48747 
55.1743 96.5909 51.0445 0.00771538 -2.46546 0.331752 0.327201 -1.39525 0.124951 0.654904 1.21284 0.21536 0.652774 2.85784 0.204501 -1.70544 10.6806 -5.42048 1.19793 5.96196 -5.87122 59.5966 -9.97814 -6.20978 113.888 21.7134 11.2989 -1.67054e-006 2.70513e-007 7.76101e-006 10.9644 0.0836746 -0.674969 1.9215e-006 3.63882e-006 -3.02098 8.02892 -4.95148 0.697704 -63.0073 -7.72244 4.92229 -109.963 19.7849 -4.04622 6.21236e-006 3.09363e-007 4.92681e-006 -10.53 0.0807723 0.897265 1.11124e-005 4.87707e-006 3.03446 -8.02895 -4.95148 -0.69769 173.922 3.78222 3.54695 -180 7.01543e-015 178.905 177.818 10.3573 179.835 -2.43837e-006 -5.43981e-006 0.160285 -19.0722 68.3839 19.868 8.13649 25.2327 -3.48774 -175.371 1.86495 -0.0692585 4.5067e-006 -1.99009e-005 -1.11691 -0.950148 -9.03625 0.298738 1.5033e-006 1.23405e-006 -0.120485 18.7161 68.1236 -19.6364 -8.13651 25.2329 3.48747 
55.1702 96.5878 51.039 0.00422764 -2.44695 0.334404 0.328517 -1.39953 0.122973 0.658 1.20428 0.211274 0.65592 2.84927 0.200361 -1.73215 10.7349 -5.41091 1.22219 5.94155 -5.86722 59.5753 -9.95699 -6.19671 113.905 21.706 11.3201 -1.67054e-006 2.70513e-007 7.76101e-006 10.9484 0.0836791 -0.676461 1.9215e-006 3.63882e-006 -3.02098 8.02892 -4.95148 0.697704 -63.029 -7.71603 4.91928 -109.937 19.7771 -4.04683 6.21236e-006 3.09363e-007 4.92681e-006 -10.5361 0.0807707 0.894177 1.11124e-005 4.87707e-006 3.03448 -8.02895 -4.95148 -0.69769 173.927 3.80066 3.54252 -180 7.01543e-015 178.905 177.818 10.3477 179.835 -2.43837e-006 -5.43981e-006 0.160085 -19.0677 68.3788 19.8632 8.13649 25.2327 -3.48774 -175.371 1.91415 -0.0570486 4.5067e-006 -1.99009e-005 -1.11649 -0.936526 -9.07305 0.301563 1.5033e-006 1.23405e-006 -0.122259 18.7327 68.1362 -19.647 -8.13651 25.2329 3.48747 
